<svg xmlns="http://www.w3.org/2000/svg" xmlns:xlink="http://www.w3.org/1999/xlink" version="1.0" x="0px" y="0px" viewBox="0 0 100 125" enable-background="new 0 0 100 100" xml:space="preserve"><path d="M68.971077,32.1099586c8.3196335,0,8.3196335,12.4171944,0,12.4171944  C60.6401253,44.527153,60.6401253,32.1099586,68.971077,32.1099586z M70.6463242,36.7621613  c-2.161972-2.094059-5.5124664,1.0187302-3.3618088,3.1014671C69.4464874,41.9576874,72.7969742,38.8562202,70.6463242,36.7621613z"/><path d="M14.4916267,20.6322594h71.0168457c3.3504944,0,6.1576614,2.6939774,6.1576614,6.0444679v46.6465454  c0,3.3504944-2.8071671,6.0444641-6.1576614,6.0444641H14.4916267c-3.3504915,0-6.1576605-2.6939697-6.1576605-6.0444641V26.6767273  C8.3339663,23.3262367,11.1411352,20.6322594,14.4916267,20.6322594z M12.3296537,47.5720253l10.6174383-11.7493591  c0.86026-0.9508171,2.3996754-0.8376236,3.1127872,0.215065h0.0113182l13.6170349,19.9784393l2.9316788-7.2782631  c0.1924286-0.4867287,0.5546417-0.8489418,0.9847717-1.0526886l8.2404022-4.0070076  c0.8942184-0.43013,1.9582253-0.1245117,2.5015488,0.6678352l10.2099457,12.7680893l6.6783447,4.1428375l4.5956039-7.561245  c0.5546417-0.8942184,1.7092056-1.2111588,2.6260605-0.7244301l9.2138596,4.8785858V26.6767273  c0-1.1545601-0.9960938-2.0487804-2.1619797-2.0487804H14.4916267c-1.1658802,0-2.161973,0.8942204-2.161973,2.0487804V47.5720253z   M87.6704483,62.3549385l-9.4176025-4.9804611L73.589325,65.048912c-0.5772858,0.9281769-1.8110809,1.2224808-2.7392578,0.6452026  l-9.1798935-5.8180885l-9.5194702-11.9191475l-6.123703,2.9769592c-0.5999184,0.645195-3.4636841,10.0401535-4.7653961,10.9230537  c-0.9055367,0.6225586-2.1506538,0.3848534-2.7732124-0.5206833L24.2035255,40.3616753L12.3296537,53.4919815v19.8312912  c0,1.1545639,0.9960928,2.0487823,2.161973,2.0487823h71.0168457c1.1658859,0,2.1619797-0.8942184,2.1619797-2.0487823V62.3549385z"/><text x="0" y="115" fill="#000000" font-size="5px" font-weight="bold" font-family="'Helvetica Neue', Helvetica, Arial-Unicode, Arial, Sans-serif">Created by sofi</text><text x="0" y="120" fill="#000000" font-size="5px" font-weight="bold" font-family="'Helvetica Neue', Helvetica, Arial-Unicode, Arial, Sans-serif">from the Noun Project</text></svg>